<svg width="310" height="315" viewBox="0 0 310 315" fill="none" xmlns="http://www.w3.org/2000/svg">
<path d="M77.5 135.5L0.5 180V269L77.5 314L154.5 269L232.5 314L309 269V180L232.5 135.5V46L154.5 1.5L77.5 46V225L154.5 268L231.5 225V135.5L155 90.5L79 134.5L102 135.5H131.5C133.333 135.667 137.6 136.6 140 139C143 142 145.5 145 145.5 148C145.5 151 144.5 157 143.5 157.5C142.5 158 140 160.5 138.5 161C137 161.5 138.5 161 142 163.5C145.5 166 146.5 167.5 147 169C147.5 170.5 148 171.5 148 175C148 178.5 146.5 183.5 145.5 184.5C144.5 185.5 141 189 138.5 189.5C136.5 189.9 152.667 189.667 161 189.5V135.5H172V160L195 135.5H209.5L189 157.5L210.5 191H196.5L181 165.5L172 174V191H102V201.5H119V205.5H113V222.5H121.5V201.5H133.5C135.167 202.167 138.5 204.4 138.5 208C138.5 212.5 134.5 215 133.5 215C132.7 215 128.167 215 126 215V222.5H137.5V219H142V222.5H146V201.5H150.5V210H159V201.5H163.5V222.5H172.5C170.667 221.333 167 217.9 167 213.5C167 208 170 201.5 176.5 201.5C183 201.5 184.5 204.5 185 205.5C185.4 206.3 185.833 207.167 186 207.5L182 208.5C181.333 207.333 179.4 205 177 205C174 205 171.5 208 171.5 210C171.5 212 171.5 214.5 171.5 215C171.5 215.5 173 219.5 175 219.5C176.6 219.5 178 219.5 178.5 219.5C179 219.333 180.1 218.8 180.5 218C180.9 217.2 181.667 216 182 215.5L186 217C185.167 218.833 183.1 222.5 181.5 222.5C179.9 222.5 186.167 222.5 189.5 222.5V201.5H196L199.5 216H200L203.5 201.5H210.5V223H206V207L202 223H197.5L193.5 207V223H159V214H150.5V223H108.186V205.5H102V137L77.5 135.5Z" stroke="black"/>
</svg>
