<svg width="351" height="321" viewBox="0 0 351 321" fill="none" xmlns="http://www.w3.org/2000/svg">
<path d="M283 224.5C277.8 228.1 209.5 289.667 176 320C142.333 289.833 73.8 228.5 69 224.5C63 219.5 52 208.5 44 200.5C36 192.5 24.5 176 18 166.5C11.5 157 4 131 2.5 118.5C1 106 1 82.5 2.5 72.5C4 62.5 11 46 19.5 34C28 22 49.5 9 63 4.5C76.5 -9.53674e-07 84 1 100 1C116 1 137.5 12.5 146.5 19C155.5 25.5 164.5 35 167.5 39C169.9 42.2 174.167 48.3333 176 51C178 48.1667 182.5 41.8 184.5 39C187 35.5 188.5 33.5 205 19C221.5 4.5 244.5 1.5 264 1C283.5 0.500002 300.5 9 311.5 15.5C322.5 22 336.5 40 343.5 53C350.5 66 351.5 90 349.5 118.5C347.5 147 327.5 176.5 324.5 182C321.5 187.5 289.5 220 283 224.5Z" stroke="black"/>
</svg>
