<svg width="191" height="313" viewBox="0 0 191 313" fill="none" xmlns="http://www.w3.org/2000/svg">
<path d="M134 140.125C134.5 139.958 136.2 139.825 139 140.625C142.5 141.625 146.5 141.625 148.5 141.625C150.5 141.625 152 141.125 153.5 140.125C155 139.125 157 137.125 157.5 136.125C158 135.125 158.5 134.125 158.5 133.125C158.5 132.325 158.5 126.458 158.5 123.625C158.833 122.125 159.6 118.925 160 118.125C160.5 117.125 161.5 113.125 161.5 112.125C161.5 111.325 161.833 97.7917 162 91.125L158.5 93.625C159.333 92.9583 161.3 91.225 162.5 89.625C164 87.625 164.5 86.125 164.5 85.625C164.5 85.125 165 84.625 164.5 84.125C164 83.625 163.5 83.125 161 81.125C158.5 79.125 156.5 77.625 155 76.125C153.5 74.625 150 71.625 150 71.125C150 70.625 150.5 69.625 152 69.125C153.5 68.625 155 68.125 156 68.625C157 69.125 158 69.125 157.5 69.625C157 70.125 156 75.625 155 74.625C154 73.625 152.5 73.125 152.5 71.625C152.5 70.125 153 69.625 154 69.625C155 69.625 156 70.625 156 71.125C156 71.625 156 73.625 155 73.125C154 72.625 153.5 71.625 154 71.125C154.5 70.625 158 70.125 157.5 68.625C157 67.125 156 66.625 155 66.625C154 66.625 153 66.625 152.5 67.125C152 67.625 150 67.625 151 67.125C152 66.625 153.5 65.625 154.5 65.625C155.5 65.625 156.5 67.125 156.5 66.125C156.5 65.325 156.5 62.7917 156.5 61.625C156.667 60.9583 156.9 59.525 156.5 59.125C156 58.625 154.5 58.125 154 58.625C153.5 59.125 151.5 60.125 151 60.125C150.5 60.125 149.5 59.125 150 58.125C150.4 57.325 151.167 56.7917 151.5 56.625C151.833 56.2917 152.8 55.625 154 55.625C155.5 55.625 157.5 60.125 156.5 56.625C155.5 53.125 152.5 48.125 152.5 47.625C152.5 47.125 146.5 37.625 146 36.625C145.5 35.625 138.5 26.625 137.5 25.625C136.5 24.625 133.5 22.125 132 20.625C130.5 19.125 128.5 18.125 127 17.625C125.5 17.125 121.5 17.625 120 18.125C118.5 18.625 116 21.625 115 22.625C114.2 23.425 112.333 27.9583 111.5 30.125L108.5 39.125L109 60.125C111.667 58.2917 117.2 54.525 118 54.125C119 53.625 121.5 52.625 123 52.125C124.5 51.625 129 51.625 130 51.625C131 51.625 135 51.625 136 52.125C137 52.625 139.5 53.625 140 54.625C140.5 55.625 140.5 56.625 140 57.125C139.5 57.625 138.5 58.125 137.5 58.125C136.5 58.125 134.5 58.125 134 57.625C133.5 57.125 131.5 56.125 130.5 56.125C129.7 56.125 126.833 56.125 125.5 56.125C124.333 55.9583 121.7 55.725 120.5 56.125C119 56.625 114.5 57.625 113.5 58.125C112.7 58.525 110.167 60.2917 109 61.125V69.625L117.5 65.625L125.5 62.625C127.333 62.2917 131.1 61.725 131.5 62.125C132 62.625 137 64.625 134.5 64.125C132 63.625 132 63.125 131 63.125C130 63.125 127 63.125 125.5 63.625C124 64.125 111.5 68.625 116 67.625C120.5 66.625 123.5 65.125 124.5 65.125C125.5 65.125 127.5 64.625 129.5 64.625C131.5 64.625 133 64.625 133.5 65.125C134 65.625 135 66.625 135 67.625C135 68.625 135 69.125 135.5 70.125C136 71.125 136 72.125 134.5 71.625C133 71.125 134 71.125 133.5 71.125C133 71.125 132 70.125 131 70.125C130 70.125 129 70.625 128 70.125C127 69.625 126.5 69.625 126.5 68.625C126.5 67.625 126 67.125 126.5 66.625C127 66.125 127 65.625 128.5 65.625C130 65.625 131.5 65.625 131.5 66.125C131.5 66.625 133 66.625 132.5 67.625C132 68.625 131.5 69.125 131 69.125C130.5 69.125 128 69.625 128 69.125C128 68.625 126.5 68.125 127 67.625C127.5 67.125 127.5 66.625 128.5 66.625C129.5 66.625 131.5 66.625 131 67.125C130.5 67.625 130 68.125 129.5 68.125C129 68.125 128 70.625 125.5 70.125C123 69.625 122.5 69.125 120.5 68.625C118.5 68.125 118 67.625 116 68.125C114.4 68.525 110.667 69.9583 109 70.625L108.5 77.125L106.5 84.125C105.333 86.2917 102.9 90.725 102.5 91.125C102 91.625 99.9999 94.625 98.9999 95.625C98.1999 96.425 95.3333 97.9583 93.9999 98.625C94.9999 97.7917 97.2999 95.825 98.4999 94.625C99.9999 93.125 103 89.125 103.5 88.125C104 87.125 106.5 81.625 106.5 81.125C106.5 80.625 109 71.125 108 73.625C107 76.125 106.5 81.125 105.5 82.625C104.5 84.125 103 88.625 102.5 88.625C102 88.625 97.4999 96.125 99.9999 91.625C102.5 87.125 104.5 83.625 105 81.625C105.5 79.625 106.5 78.625 106.5 74.625C106.5 70.625 106.5 70.625 106.5 69.625C106.5 68.825 106.5 67.2917 106.5 66.625L105.5 64.125C105.5 65.2917 105.5 67.825 105.5 68.625C105.5 69.425 105.5 72.9583 105.5 74.625C105.333 76.2917 104.9 79.725 104.5 80.125C104 80.625 102.5 85.625 102 85.625C101.5 85.625 98.4999 91.625 97.9999 91.625C97.4999 91.625 95.4999 94.625 94.4999 95.125C93.4999 95.625 90.4999 98.625 92.4999 96.125C94.4999 93.625 97.5 91.625 98.9999 88.625C100.5 85.625 101.5 84.625 102 83.125C102.5 81.625 104 78.125 104 77.625C104 77.125 104.5 74.125 104.5 73.125C104.5 72.325 104.5 65.125 104.5 61.625C104.667 60.625 104.8 58.825 104 59.625C103 60.625 103 61.125 102.5 62.125C102 63.125 102.5 64.125 102.5 65.125C102.5 66.125 103 68.625 103 69.125C103 69.525 103 75.625 103 78.625C102.667 78.2917 102 76.825 102 73.625C102 69.625 102 63.125 101.5 64.625C101 66.125 100.5 68.125 98.4999 70.625C96.4999 73.125 95.4999 77.125 93.9999 82.625C92.4999 88.125 91.4999 92.625 91.4999 95.125C91.4999 97.625 90.9999 102.125 92.4999 106.125C93.9999 110.125 96.4999 115.125 94.4999 112.125C92.4999 109.125 91 106.125 90.5 104.125C90 102.125 90.5 94.125 90.5 92.625C90.5 91.125 90.4999 88.125 91.4999 84.125C92.4999 80.125 94.9999 75.125 92.4999 78.625C90.4999 81.425 89.6666 83.4583 89.4999 84.125C88.9999 85.625 87.9999 89.125 87.9999 91.125C87.9999 93.625 87.9999 99.125 87.9999 101.125C87.9999 103.125 88.4999 108.125 89.4999 110.125C90.5 112.125 91.9999 115.625 93.9999 118.125C95.9999 120.625 103.5 125.625 98.9999 123.625C94.4999 121.625 92.4998 117.625 91.4999 117.125C90.5 116.625 85.4999 108.125 87.9999 113.125C90.5 118.125 97.4999 123.125 101.5 125.625C105.5 128.125 109 129.625 112.5 130.625C116 131.625 128 133.125 121.5 133.125C116.3 133.125 107.667 130.125 104 128.625C99.4999 124.292 90.6999 116.425 91.4999 119.625C92.4999 123.625 91.9999 126.625 93.9999 128.625C96 130.625 97.4999 133.125 101.5 134.625C105.5 136.125 106 138.125 110.5 137.125C115 136.125 121.5 132.125 117.5 134.625C113.5 137.125 108 138.625 106.5 138.625C105 138.625 101 138.125 98.9999 137.125C97 136.125 93.9999 134.125 93.9999 133.125C93.9999 132.125 92.4998 131.625 91.4999 128.625C90.5 125.625 86.4999 118.125 89.4999 125.625C92.4999 133.125 93.5 135.625 96 137.125C98.5 138.625 99.9999 141.125 104.5 140.625C109 140.125 118.5 136.625 111.5 138.625C104.5 140.625 103 142.625 98.4999 140.625C93.9999 138.625 93.5 137.625 92.4999 136.125C91.4999 134.625 88.4999 124.125 89.4999 130.625C90.3 135.825 94.1666 140.792 96 142.625C96.1666 143.125 97.4999 144.125 101.5 144.125C106.5 144.125 106.5 143.625 109 142.625C111.5 141.625 118 137.125 113.5 140.625C109 144.125 108.5 145.125 105.5 146.125C102.5 147.125 98.5 148.125 96.5 146.625C94.4999 145.125 92.4998 143.125 91.4999 140.125C90.5 137.125 89.4999 127.625 89.4999 134.625C89.4999 141.625 90.4999 142.125 91.4999 144.125C92.4999 146.125 93 146.625 96 148.125C99 149.625 102 149.625 105 148.125C108 146.625 109.5 144.125 110.5 144.125C111.5 144.125 123 129.625 119.5 136.125C116.7 141.325 113.333 144.625 112 145.625L108 149.125C107.167 150.125 104.2 152.025 98.9999 151.625C92.4999 151.125 89 148.625 88.5 147.625C87.9999 146.625 83.5 134.625 85 140.625C86.5 146.625 88.4999 148.625 91.4999 150.625C94.4999 152.625 97 153.625 99.9999 153.125C103 152.625 108.5 150.625 110.5 149.125C112.5 147.625 119 141.625 113.5 146.625C108 151.625 106.5 152.125 104 153.125C101.5 154.125 98 154.625 96 154.625C93.9999 154.625 90.9999 154.125 87.9999 151.625C85.6 149.625 82.6666 145.792 81.5 144.125C80 142.125 76.9 137.925 76.5 137.125C76 136.125 73.5 125.625 73 124.625C72.5 123.625 71 94.125 71.5 113.125C72 132.125 73.4999 133.125 73.9999 134.625C74.4999 136.125 75.4999 142.125 78.4999 145.625C81.5 149.125 80.9999 149.625 84.4999 152.125C87.9999 154.625 89.9999 155.625 93.9999 155.625C97.9999 155.625 100.5 156.125 103.5 154.625C106.5 153.125 116.5 145.125 112.5 149.125C108.5 153.125 109 153.625 105.5 155.625C102 157.625 101.5 158.125 97.9999 158.625C94.4999 159.125 94.9999 159.625 89.9999 159.125C85 158.625 83 157.625 81.5 156.625C79.9999 155.625 76.4999 154.125 75.9999 153.625C75.4999 153.125 71.4999 151.625 68.9999 149.125C66.4999 146.625 63.4999 142.625 61.9999 140.625C60.4999 138.625 59.4999 135.625 58.4999 133.125C57.4999 130.625 54.9999 120.625 55.9999 127.625C56.9999 134.625 58.4999 138.625 59.4999 140.625C60.4999 142.625 60.9999 144.125 62.9999 146.625C64.9999 149.125 69 151.625 71.5 153.625C73.9999 155.625 76.4999 157.125 79.4999 158.125C82.4999 159.125 88.5001 160.625 90.5 160.625C92.4999 160.625 99.4999 160.125 101 159.625C102.5 159.125 105 158.625 107 157.625C109 156.625 114.5 152.625 110.5 155.625C106.5 158.625 103 161.625 99.9999 162.125C96.9999 162.625 93 163.625 89.4999 163.625C85.9999 163.625 78.4999 163.125 77.9999 162.625C77.4999 162.125 70.9999 161.625 67.4999 159.625C63.9999 157.625 61.4999 157.125 55.9999 153.125C50.4999 149.125 44.4999 145.125 41.9999 140.625C39.4999 136.125 37.9999 131.625 36.9999 127.625C35.9999 123.625 32.4999 111.625 35.4999 119.625C38.4999 127.625 45.4999 148.625 41.9999 137.125C38.4999 125.625 35.4999 112.625 38.4999 122.125C41.4999 131.625 49.9999 149.625 45.9999 138.625C41.9999 127.625 39.4999 108.625 41.9999 119.625C44.4999 130.625 47.9999 144.125 45.9999 133.125C43.9999 122.125 40.9999 119.125 44.9999 112.625C48.9999 106.125 50.4999 104.625 56.9999 102.125C63.4999 99.625 66.4999 100.125 73.9999 95.625C81.5 91.125 95 74.125 97.9999 68.625C101 63.125 103 56.125 105 47.625C107 39.125 111.5 18.625 116 15.625C120.5 12.625 119.5 12.625 123 14.125C126.5 15.625 131.5 20.125 128.5 15.625C125.5 11.125 125.5 7.625 119.5 9.125C113.5 10.625 112.5 14.125 111.5 16.625C110.5 19.125 107 24.625 105.5 30.125C104 35.625 99 49.625 97.9999 52.125C96.9999 54.625 93.0001 66.625 90.5 70.125C87.9999 73.625 83.9999 81.125 78.9999 84.125C73.9999 87.125 62.4999 91.625 56.9999 95.125C51.4999 98.625 50.9999 96.625 46.9999 102.125C42.9999 107.625 42.9999 111.125 39.9999 113.125C36.9999 115.125 30.9999 110.625 31.9999 117.125C32.9999 123.625 35.4999 134.125 36.9999 137.125C38.4999 140.125 43.4998 145.125 45.9999 149.125C48.5 153.125 51.9999 155.125 56.9999 158.625C61.9999 162.125 71.0001 164.125 75 164.625C78.9999 165.125 81.0001 164.625 83 164.625C85 164.625 87.4999 165.625 84.4999 167.625C81.5 169.625 79.9999 171.625 77.9999 172.125C75.9999 172.625 73.5001 173.625 70.5 173.625C67.4999 173.625 63.9999 174.625 62.9999 175.625C62.1999 176.425 50 182.625 44 185.625C44.5 184.625 44.7999 182.025 41.9999 179.625C38.4999 176.625 35.4998 171.625 31.9999 169.625C28.5 167.625 26 163.625 25 162.125C24 160.625 20.5 155.625 19.5 153.125C18.5 150.625 13.5 138.625 17.5 149.125C21.5 159.625 30.5 173.125 25 166.125C19.5 159.125 18.5001 156.125 17.5 154.625C16.4999 153.125 13.9999 147.625 12.9999 144.125C11.9999 140.625 10.4999 135.625 10.4999 133.125C10.4999 130.625 10.4999 122.125 10.4999 119.625C10.4999 117.125 9.49994 115.125 11.4999 106.125C13.4999 97.125 16.5001 79.625 19.5 71.625C22.4999 63.625 25.9999 54.125 26.9999 51.625C27.9999 49.125 29.5 44.125 32.4999 38.125C35.4999 32.125 41.9999 24.625 47.9999 21.125C53.9999 17.625 58.4999 16.125 62.9999 12.625C67.4999 9.125 77.5001 6.625 83 5.125C88.5 3.625 101.5 1.625 103.5 1.625C105.5 1.625 111.5 2.125 116 3.625C120.5 5.125 124 11.625 127 9.125C130 6.625 131 6.625 130.5 5.125C130 3.625 131.5 6.125 130.5 7.625C129.5 9.125 125.5 11.625 128.5 10.125C131.5 8.625 132 8.125 132 6.625C132 5.125 131.5 0.625 132.5 3.625C133.5 6.625 133.5 7.125 133.5 8.625C133.5 10.125 131 13.125 132.5 11.125C134 9.125 134 10.625 135 8.625C136 6.625 137 6.125 136 8.625C135 11.125 134 12.125 137 8.625C140 5.125 140.5 3.625 142.5 2.625C144.5 1.625 147 1.125 148.5 1.125C150 1.125 152.5 0.625 155 1.625C157.5 2.625 160.5 4.125 161.5 5.125C162.5 6.125 167.5 11.625 164.5 9.125C161.5 6.625 159 4.625 155.5 3.625C152 2.625 149.5 2.625 147.5 2.625C145.9 2.625 142.5 4.29167 141 5.125C138.667 7.45833 134.7 11.525 137.5 9.125C141 6.125 146 4.625 148.5 4.625C150.5 4.625 153 4.95833 154 5.125C155.667 5.79167 159.3 7.525 160.5 9.125C162 11.125 164 14.625 164.5 15.125C165 15.625 169 23.125 166 19.125C163 15.125 163.5 15.125 161.5 12.125C159.5 9.125 159 8.625 157 7.625C155 6.625 154.5 5.625 152 5.625C149.5 5.625 149 5.125 147.5 5.625C146 6.125 144.5 6.625 143.5 7.625C142.5 8.625 140.5 10.125 140 11.125C139.5 12.125 137 12.625 138.5 13.625C140 14.625 142 15.125 144 15.625C146 16.125 151.5 18.625 155 20.625C158.5 22.625 163 25.625 164.5 27.125C166 28.625 168 31.625 169.5 34.125C171 36.625 174.5 41.125 171.5 37.625C168.5 34.125 166 29.625 163.5 27.625C161 25.625 152.5 17.625 157 22.625C161.5 27.625 162.5 28.125 163.5 30.125C164.5 32.125 172.792 44.125 167 35.625C161.208 27.125 162.5 29.625 159 26.125C155.5 22.625 153 21.125 151.5 20.625C150 20.125 138.5 13.125 143.5 16.625C148.5 20.125 152 21.625 153.5 23.125C155 24.625 158 26.625 159 27.625C160 28.625 162.5 31.125 163.5 32.625C164.5 34.125 166.5 38.125 167.5 39.625C168.5 41.125 170.5 47.625 171.5 49.125C172.5 50.625 174 56.125 174 57.125C174 58.125 175.5 70.125 174.5 65.125C173.5 60.125 172.5 55.125 171.5 52.625C170.5 50.125 169 46.125 167.5 43.625C166 41.125 163.5 37.125 162.5 35.625C161.5 34.125 160.5 32.625 158.5 30.125C156.5 27.625 153 25.125 152 24.625C151 24.125 145 17.625 148.5 22.625C152 27.625 157 35.625 159 39.625C160.6 42.825 166.667 55.625 169.5 61.625C171.333 65.625 175.2 74.425 176 77.625C177 81.625 178.5 94.125 178.5 95.625C178.5 97.125 178 102.125 177.5 104.125C177 106.125 175 111.125 174.5 113.125C174 115.125 172.5 117.625 172 119.625C171.5 121.625 170.5 126.125 170.5 128.625C170.5 131.125 171 137.625 171.5 140.125C172 142.625 175 149.125 172.5 144.625C170.5 141.025 169.333 136.458 169 134.625C168.833 132.458 168.6 127.625 169 125.625C169.5 123.125 169.5 119.125 170.5 118.125C171.5 117.125 172.5 111.625 173.5 109.625C174.5 107.625 176 100.625 176 99.625C176 98.625 176 94.125 176 91.125C176 88.125 174.5 83.625 174.5 83.125C174.5 82.625 174.5 81.125 173.5 78.625C172.5 76.125 170.5 64.625 171.5 73.625C172.5 82.625 173.5 83.625 173.5 86.625C173.5 89.625 173.5 96.125 173.5 97.125C173.5 98.125 173 100.125 172.5 102.125C172 104.125 171.5 104.625 171 106.625C170.5 108.625 170 111.625 169.5 113.125C169 114.625 168 120.625 168 122.625C168 124.625 169 132.125 168 125.625C167 119.125 168 115.125 168 113.125C168 111.125 168.5 108.125 169 106.125C169.5 104.125 170 101.625 170.5 100.125C171 98.625 172.5 94.125 172.5 92.625C172.5 91.125 173 88.125 172.5 86.625C172 85.125 171.5 69.625 171 81.125C170.5 92.625 170 93.625 169.5 96.125C169 98.625 168 103.125 167.5 104.625C167 106.125 166.5 105.125 165.5 109.625C164.5 114.125 164.5 116.625 164.5 121.125C164.5 125.625 163.5 139.625 164 142.625C164.5 145.625 167.5 147.125 169.5 148.125C171.5 149.125 173 151.125 177.5 151.625C182 152.125 193.5 151.125 187 152.125C180.5 153.125 176 152.625 173.5 152.125C171 151.625 167 149.625 165.5 148.125C164 146.625 163 147.625 162.5 142.625C162 137.625 162.5 133.125 162.5 131.625C162.5 130.125 162.5 123.625 162.5 121.125C162.5 118.625 163 119.125 162 116.125C161.2 113.725 159.667 112.125 159 111.625C158.833 111.292 158.1 110.525 156.5 110.125C154.5 109.625 153 109.625 152 109.625C151 109.625 150 109.625 148.5 109.625C147 109.625 145 110.125 144.5 110.125C144 110.125 140.5 110.625 142.5 111.625C144.1 112.425 146.167 113.625 147 114.125L150.5 116.125C151.333 116.458 153.3 117.225 154.5 117.625C156 118.125 156.5 118.125 157.5 117.625C158.5 117.125 159.5 115.125 159.5 114.625C159.5 114.125 159 113.125 159 112.625C159 112.125 159.5 111.625 160 110.125C160.5 108.625 160.5 107.125 160.5 106.125C160.5 105.125 160.5 103.125 160 102.125C159.5 101.125 159.5 100.125 159 100.125C158.5 100.125 157.5 99.125 157.5 98.125C157.5 97.325 157.833 95.125 158 94.125C158 92.9583 157.9 90.525 157.5 90.125C157 89.625 155.5 89.625 155 90.125C154.5 90.625 153 91.125 152 92.125C151 93.125 150.5 93.625 149.5 94.125C148.5 94.625 147.5 93.625 149 92.625C150.5 91.625 149.5 92.125 151 91.125C152.5 90.125 153 89.625 153.5 89.625C154 89.625 157 91.125 157 91.625C157 92.125 157 94.125 157 94.625C157 95.125 157.5 102.125 156 100.625C154.5 99.125 154 99.125 153.5 99.625C153.1 100.025 148.333 103.125 146 104.625C144.667 105.792 142 108.225 142 108.625C142 109.125 142.5 110.125 143.5 109.625C144.3 109.225 146.5 108.792 147.5 108.625L151.5 107.625C152.333 107.292 154.2 106.825 155 107.625C156 108.625 157 109.125 158 109.625C159 110.125 162.5 113.625 162.5 114.125C162.5 114.625 162 119.625 161.5 121.125C161.1 122.325 161 131.625 161 136.125C161 138.625 161.1 144.025 161.5 145.625C162 147.625 164 149.125 165.5 150.625C167 152.125 169.5 153.125 171 153.625C172.5 154.125 177 154.625 178.5 154.625C180 154.625 195 152.125 187.5 153.625C180 155.125 177 155.625 175.5 155.625C174 155.625 170 154.625 169 154.625C168 154.625 163 150.125 162 149.625C161 149.125 156.5 139.125 159.5 145.625C162.5 152.125 164 153.625 165.5 154.125C167 154.625 168 155.125 172.5 156.125C177 157.125 179.5 157.625 181.5 157.625C183.5 157.625 191 156.625 186 157.625C181 158.625 171 159.625 176.5 159.625C182 159.625 190.5 159.625 183.5 160.125C176.5 160.625 168 160.125 173.5 160.625C179 161.125 189 160.125 180.5 161.125C173.7 161.925 167.667 161.458 165.5 161.125C163.167 160.625 158.1 159.425 156.5 158.625C154.5 157.625 151 157.125 149 155.625C147 154.125 144 151.125 144.5 153.125C145 155.125 147.5 158.625 148 158.625C148.5 158.625 158 164.625 153.5 162.625C149 160.625 142 151.625 145 156.625C148 161.625 150 163.125 151 163.625C152 164.125 155.5 165.625 156.5 165.625C157.5 165.625 165.5 166.125 159 165.625C152.5 165.125 150.5 165.625 148.5 164.125C146.5 162.625 143 157.125 145.5 161.125C148 165.125 155 170.625 150 166.625C145 162.625 142 158.125 144 161.625C146 165.125 152 169.125 149.5 168.125C147 167.125 144.5 164.625 143.5 163.625C142.5 162.625 141 159.625 140.5 159.125C140 158.625 139.5 157.125 139 156.125C138.5 155.125 137.5 151.625 138 154.625C138.5 157.625 139 158.625 138 157.125C137 155.625 134.5 152.125 136 155.125C137.5 158.125 141.5 161.125 139 159.625C136.5 158.125 131.5 152.125 133.5 155.125C135.5 158.125 140 160.625 137 159.125C134 157.625 130.5 152.125 132.5 155.625C134.5 159.125 141 161.125 138 160.625C135 160.125 130.5 157.625 131.5 159.125C132.5 160.625 134.5 161.625 135 162.125C135.5 162.625 138 163.625 139.5 164.125C141 164.625 138.5 164.625 137.5 164.625C136.5 164.625 133 163.625 134 164.625C135 165.625 136.5 166.125 137.5 166.625C138.5 167.125 145.5 168.625 141.5 168.125C137.5 167.625 134 165.625 133 165.125C132 164.625 128.817 160.625 131.159 164.125C133.5 167.625 134 168.125 135 169.125C136 170.125 145.5 175.125 139 171.625C132.5 168.125 129.491 166.125 128.746 165.125C128 164.125 127 162.125 127 163.125C127 164.125 127.5 166.625 129.5 168.125C131.5 169.625 140.5 174.125 135 172.125C129.5 170.125 126.5 162.625 126 165.125C125.5 167.625 118.5 196.125 118 198.125C117.5 200.125 122.5 206.625 125 208.125C127.5 209.625 132.5 211.625 134.5 212.625C136.5 213.625 141.5 215.625 143.5 217.125C145.5 218.625 150 224.125 151 225.625C152 227.125 154.5 228.625 154.5 231.125C154.5 233.625 156.5 248.625 156.5 250.625C156.5 252.625 157.5 265.625 157.5 266.625C157.5 267.625 160 290.125 160.5 283.125C161 276.125 162 269.125 162 266.125C162 263.125 162.5 250.625 162.5 249.125C162.5 247.625 161.5 241.625 161 240.625C160.5 239.625 155.5 229.625 155.5 232.625C155.5 235.025 155.5 242.292 155.5 245.625L156 258.125C156.5 263.292 157.6 274.225 158 276.625C158.5 279.625 162 288.125 163 293.625C164 299.125 165.5 302.625 166 306.125C166.5 309.625 169.5 312.125 166.5 312.125C164.1 312.125 91.4999 312.125 55.4999 312.125C55.9999 307.125 57.2999 296.425 58.4999 293.625C59.9999 290.125 64.4999 284.625 65.4999 280.625C66.4999 276.625 68.9999 268.125 69.4999 261.625C69.9999 255.125 70.9999 240.625 69.4999 232.625C67.9999 224.625 67.4999 217.125 65.4999 212.625C63.4999 208.125 58.4999 205.125 55.4999 203.125C52.4999 201.125 48.5001 198.125 44 198.125C39.4999 198.125 31.4999 199.125 27.9999 201.125C24.4999 203.125 20.4999 205.625 17.4999 210.625C14.4999 215.625 12.4999 221.125 11.4999 224.125C10.4999 227.125 9.49994 239.625 8.99994 242.625C8.49994 245.625 6.99994 254.625 6.99994 258.125C6.99994 261.625 5.99994 277.125 5.99994 279.625C5.99994 282.125 2.99994 321.125 3.49994 310.125C3.99994 299.125 5.50006 280.625 4.5 277.625C3.49994 274.625 1 269.625 1 266.625C1 263.625 1 254.125 1 249.125C1 244.125 4.5 227.125 4.5 225.625C4.5 224.125 5.99988 218.625 6.99994 215.625C8 212.625 19.5 200.125 21.5 198.125C23.5 196.125 33 190.625 35 189.625C37 188.625 41.9998 184.125 45.9999 185.625C50 187.125 56.9999 189.125 59.4999 191.125C61.9999 193.125 69.5001 198.125 70.5 199.125C71.5 200.125 83.9999 209.625 84.4999 210.625C85 211.625 91.0001 218.625 92.5 222.125C93.9999 225.625 100.5 235.625 102.5 239.125C104.5 242.625 107 248.625 110.5 250.625C114 252.625 120 255.125 123.5 255.125C127 255.125 132.5 255.125 135 252.125C137.5 249.125 138.5 249.625 139.5 242.625C140.5 235.625 141 233.125 139.5 228.625C138 224.125 136.5 220.125 133 217.125C129.5 214.125 125.5 211.625 122.5 208.125C119.5 204.625 116.5 199.125 118 193.625C119.5 188.125 130.817 143.625 131.159 142.625C131.432 141.825 133.167 140.625 134 140.125Z" stroke="black"/>
</svg>
