<svg width="260" height="312" viewBox="0 0 260 312" fill="none" xmlns="http://www.w3.org/2000/svg">
<path d="M1.26551 64.7421C0.293956 53.1893 1.26551 32.5158 16.8105 18.5308C32.3554 4.54574 44.4999 5.76183 60.0448 8.80205C75.5898 11.8423 86.7627 34.3399 86.7627 41.0284C86.7627 47.7169 86.7627 70.8225 79.476 82.9834C72.1893 95.1443 28.4692 148.044 37.2132 155.341C45.9572 162.637 110.08 126.763 120.767 117.034C131.454 107.305 145.056 106.089 138.741 121.29C132.426 136.491 120.767 140.748 127.568 145.612C134.369 150.476 243.184 170.542 248.041 165.069C252.899 159.597 256.3 145.612 249.499 143.788C242.698 141.964 132.912 138.923 152.829 127.979C172.746 117.034 220.838 101.225 228.124 82.9834C235.411 64.7421 237.84 50.149 232.982 36.164C228.124 22.179 221.324 9.41009 209.665 5.15378C198.006 0.897473 188.776 -1.5347 176.632 5.15378C164.487 11.8423 151.857 25.8273 150.4 41.0284C148.942 56.2295 158.658 64.7421 165.459 64.7421C172.26 64.7421 181.975 65.3502 184.89 56.8375C187.805 48.3249 182.461 42.8525 179.547 43.4606C176.632 44.0686 163.516 49.541 166.916 41.6364C170.317 33.7319 171.288 29.4755 176.632 27.0434C181.975 24.6112 191.691 20.3549 198.492 22.179C205.293 24.0032 211.122 28.8675 215.008 36.164C218.895 43.4606 222.781 52.5812 218.895 61.7019C215.008 70.8226 214.523 75.6869 209.665 78.1191C204.807 80.5513 135.341 112.17 129.025 120.074C122.71 127.979 129.997 138.315 117.367 145.612C104.737 152.909 52.2724 173.582 46.9288 175.406C41.5852 177.23 27.4976 182.703 27.0118 191.823C26.5261 200.944 84.3338 197.296 95.5067 191.823C106.68 186.351 109.594 175.406 108.623 172.974C107.651 170.542 105.708 169.934 104.251 169.934C102.793 169.934 101.336 172.366 101.822 176.014C102.308 179.662 102.308 191.215 104.737 193.039C107.165 194.864 109.109 194.256 110.08 193.039C111.052 191.823 112.023 189.391 111.052 188.175C110.08 186.959 108.623 186.959 108.623 188.175C108.623 189.391 108.866 190.607 110.08 190.607C111.295 190.607 112.509 189.999 113.481 188.175C114.452 186.351 117.367 187.567 118.338 183.919C119.31 180.27 118.338 174.19 120.281 172.974C122.225 171.758 130.483 165.677 127.568 169.326C124.653 172.974 118.338 171.758 117.853 175.406C117.367 179.054 120.281 191.823 117.367 198.512C114.452 205.2 110.566 207.632 112.023 204.592C113.481 201.552 115.424 201.552 116.395 196.08C117.367 190.607 118.338 184.527 120.281 183.919C122.225 183.311 135.341 183.919 136.312 182.095C137.284 180.27 136.312 174.19 138.741 172.974C141.17 171.758 150.886 166.894 148.942 169.326C146.999 171.758 135.341 172.974 135.341 175.406C135.341 177.838 138.741 194.256 136.798 197.904C134.855 201.552 129.025 208.849 130.969 204.592C132.912 200.336 135.341 200.336 135.341 196.08C135.341 191.823 132.912 185.135 137.77 183.919C142.627 182.703 229.096 185.135 234.925 191.823C240.755 198.512 239.783 212.497 244.641 207.024C249.499 201.552 259.7 197.296 257.757 190.607C255.814 183.919 253.385 183.919 251.442 183.919C249.887 183.919 246.26 188.378 244.641 190.607C244.479 187.77 243.378 182.095 240.269 182.095C236.383 182.095 236.868 194.256 231.039 193.039C225.21 191.823 147.485 185.287 142.142 185.743C136.798 186.199 134.369 185.743 132.426 185.743C130.483 185.743 121.739 185.743 120.281 186.351C118.824 186.959 118.338 186.351 115.909 188.175C113.481 189.999 110.566 195.472 109.109 196.08C107.651 196.688 27.0118 197.904 27.0118 204.592C27.0118 209.943 27.0118 219.388 27.0118 223.442H46.9288V258.1H65.8742V223.442H83.3622V308.568H86.7627V223.442H113.481C119.31 223.036 130.969 226.968 130.969 245.939C130.969 269.653 116.881 273.909 113.481 273.909C110.76 273.909 104.575 273.909 101.822 273.909V308.568H135.341V223.442H165.459C169.831 224.658 178.478 230.86 178.089 245.939C177.701 261.019 169.507 265.599 165.459 266.005C171.612 266.207 183.919 270.626 183.919 286.678C183.919 302.731 171.612 307.96 165.459 308.568H187.319V223.442C192.824 223.442 205.876 223.442 214.037 223.442C224.238 223.442 234.925 242.899 234.925 266.005C234.925 284.489 221 303.703 214.037 311H65.8742V273.909H46.9288V311H23.6114V193.039C22.316 193.039 19.1422 192.553 16.8105 190.607C13.8958 188.175 8.06645 182.095 8.06645 176.014C8.06645 169.934 7.09492 165.069 11.9527 155.341C16.8105 145.612 56.6444 92.1041 60.0448 80.5513C63.4453 68.9984 68.7889 58.0536 65.8742 49.541C62.9595 41.0284 52.7581 31.2997 44.9857 31.9077C37.2132 32.5158 23.6114 34.9479 23.6114 43.4606C23.6114 51.9732 25.0687 64.7421 19.7252 67.7823C14.3816 70.8226 14.8674 74.4708 8.06645 72.6467C2.6257 71.1874 1.26551 66.7689 1.26551 64.7421Z" stroke="black" stroke-width="2"/>
</svg>
