<svg width="156" height="325" viewBox="0 0 156 325" fill="none" xmlns="http://www.w3.org/2000/svg">
    <path
        d="M67.5 0C67 0.333333 65.9414 0.872428 65 1.5C63.5 2.5 57 3.41886 57 5C57 6.5 58 5.5 58 8C58 10 55.5 11 54.5 11.5L50.5 12L48 15L45 12C43.5 12 40.3 12.4 39.5 14C38.7 15.6 39.1667 17.3333 39.5 18L37.5 19L33.5 13C32.8333 13 31.4 13.2 31 14C30.6 14.8 29.8333 16.3333 29.5 17L27.5 13C26.5 13 24.4 13.2 24 14C23.5 15 22 20 19 20C16 20 16 18 15.5 17C15.1 16.2 11 14 9 13C7.5 14 4.3 16.4 3.5 18C2.7 19.6 0.833333 21.3333 0 22L2.5 26.5C4 26.8333 7.1 28 7.5 30C8 32.5 9 33 10 33C11 33 10 38.5 12 39C14 39.5 13.5 39.5 14.5 35.5C15.3 32.3 15.5 35.8333 15.5 38H17.5C18 39 17.5 41 15.5 43.5C13.5 45.1 17 43.5 16 44.5C15.6667 45.3333 14.9 47.1 14.5 47.5C14 48 19.5 53 19.5 54C19.5 55 22.5 57.5 23 57.5C23.4 57.5 25.5 58.1667 26.5 58.5C27.1667 58.3333 28.6 58.1 29 58.5C29.4 58.9 30.1667 59.3333 30.5 59.5L31.5 60L33.5 61H34C34.3333 61 35 60.6 35 59C35 57.4 37.6667 56 39 55.5C40 55.1667 42.3 54.6 43.5 55C44.7 55.4 48.3333 57.8333 50 59C51 59.5 53 60.7 53 61.5C53 62.5 48.5 65.5 48 65.5C47.5 65.5 46.5 66 47 66.5C47.4 66.9 48.1667 67 48.5 67H53C53.5 67.3333 54.4 68.1 54 68.5C53.5 69 54.5 71.5 55 71.5C55.4 71.5 57.1667 71.5 58 71.5C58.3333 71.5 59.1 71.6 59.5 72C60 72.5 60.5 75.5 60 75.5C59.5 75.5 57 77 57 77.5C57 78 56.5 79 57 79C57.4 79 57.5 79.3333 57.5 79.5C57.3333 80 56.9 81 56.5 81C56 81 54 82 54 82.5C54 82.9 54 84 54 84.5C53.8333 84.6667 53.3 85 52.5 85C51.7 85 50.1667 85 49.5 85C49.1667 84.6667 48.5 83.9 48.5 83.5C48.5 83.1 47.5 83 47 83C46 83 44 83.1 44 83.5C44 84 42 83.5 41.5 83.5C41 83.5 40.5 84.5 41 84.5C41.4 84.5 41.5 85.8333 41.5 86.5V88C41.3333 88.3333 40.9 89 40.5 89C40.1 89 38.3333 90.3333 37.5 91C37.3333 91.3333 37.1 92 37.5 92C37.9 92 39.3333 93 40 93.5H43.5C44.1667 93.8333 45.4 94.6 45 95C44.6 95.4 45.1667 96.1667 45.5 96.5L47.5 97C48 97.3333 49 98.1 49 98.5C49 99 50.5 99.5 51 99.5C51.4 99.5 51.8333 100.167 52 100.5L55.5 103C56.1667 103.167 57.7 103.5 58.5 103.5C59.3 103.5 59.5 103.833 59.5 104C60.5 104.5 62.6 105.4 63 105C63.4 104.6 64.1667 105.5 64.5 106C64.6667 106.5 64.9 107.5 64.5 107.5C64.1 107.5 63.6667 108.5 63.5 109C63.3333 109.667 63.1 111.1 63.5 111.5C64 112 64 113 65 113.5C66 114 67.5 114.5 67.5 115C67.5 115.5 68 117 68.5 117C68.9 117 69.6667 117 70 117L71 116.5C72.1667 117.833 74.4 120.6 74 121C73.5 121.5 74.5 122.5 74 123.5C73.6 124.3 74.5 124.5 75 124.5C78.1667 128.5 84.6 136.4 85 136C85.5 135.5 91 139 90.5 140.5C90.1 141.7 91 142.667 91.5 143C92.5 143.5 94.4 144.6 94 145C93.5 145.5 94 150 94 151C94 152 96.5 152 96.5 153C96.5 154 97 156 97.5 156C97.9 156 98.3333 155.667 98.5 155.5C99.1667 154.5 100.5 152.6 100.5 153C100.5 153.5 101 153 101 153.5C101 154 101.5 157.5 102 157.5C102.4 157.5 104.167 157.5 105 157.5C105.333 157.667 106 158.1 106 158.5C106 159 106 161.5 106.5 161.5C107 161.5 109.5 163.5 109.5 164C109.5 164.4 111.5 164.167 112.5 164C112.833 164.167 113.5 164.6 113.5 165C113.5 165.4 112.833 166.167 112.5 166.5C110.5 167.667 106.8 170.1 108 170.5C109.5 171 110.5 175 111 175C111.5 175 117.5 179.5 117.5 180.5C117.5 181.3 117.5 182.167 117.5 182.5C117 183.667 115.9 186 115.5 186C115 186 114 186 114 186.5C114 186.9 114 187.333 114 187.5C114 187.833 114.1 188.5 114.5 188.5C115 188.5 115.5 189 115.5 189.5C115.5 189.9 115.5 190.333 115.5 190.5C115 190.833 114.1 191.5 114.5 191.5C114.9 191.5 114.667 192.167 114.5 192.5V198.5C113.333 200.667 111 205.1 111 205.5C111 205.9 111 206.667 111 207C111.667 207.833 113 209.6 113 210C113 210.5 113.5 213 113 213C112.5 213 115.5 215 115 215C114.6 215 114.833 216.333 115 217C115.5 217.833 116.5 219.6 116.5 220C116.5 220.4 116.5 221.833 116.5 222.5C116 223.5 115 225.6 115 226C115 226.5 114 228 114 228.5C114 228.9 114 230.667 114 231.5C114.333 232.333 115 234.1 115 234.5C115 235 115.5 243.5 115 243.5C114.5 243.5 113.5 248 112.5 246.5C111.5 245 111 244.5 110.5 244.5C110.1 244.5 109.333 244.5 109 244.5C107.167 246.333 103.4 250 103 250C102.5 250 98.5 250.5 98.5 251C98.5 251.5 97.5 253 97 253C96.6 253 95.5 252.333 95 252C94.1667 252 92.4 252.1 92 252.5C91.6 252.9 91.5 254 91.5 254.5L90.5 256L91 257L91.5 258.5H87C86 257.833 83.9 256.5 83.5 256.5C83.1 256.5 82.3333 256.833 82 257V258.5C81.6667 259 80.8 259.8 80 259C79.2 258.2 79 259.333 79 260L79.5 262V267C79.6667 267.5 80.5 268.8 82.5 270C85 271.5 85 271 85.5 271.5C86 272 86.5 273 86 273.5C85.5 274 85 275 85.5 275.5C86 276 86.5 277.5 85.5 277.5C84.5 277.5 84.5 277.5 83.5 277C82.5 276.5 81.5 275.5 81 276C80.5 276.5 80.5 276.5 80 276.5C79.5 276.5 78.5 275.5 78.5 273.5C78.5 271.9 76.5 272.5 75.5 273C75.3333 273.5 74.9 274.5 74.5 274.5C74 274.5 71.5 274.5 71 274C70.6 273.6 69.1667 275.167 68.5 276C67.8333 276.167 66.4 276.3 66 275.5C65.5 274.5 62 274.5 61.5 275.5C61.1 276.3 61.6667 277.167 62 277.5C62.3333 278 62.8 279.1 62 279.5C61 280 60.5 282.5 57.5 283.5C54.5 284.5 55.5 281 52 284C49.2 286.4 49.1667 286.333 49.5 286L52 289.5V292C52.6667 291.667 54.1 290.9 54.5 290.5C55 290 56.5 289.5 57 290.5C57.5 291.5 58 293 58.5 293C59 293 60.5 292 61.5 293C62.5 294 63 295 63 295.5C63 296 63 296 61.5 296.5C60 297 59.5 298.5 59 299C58.5 299.5 58 300.5 58 301C58 301.5 58 306.5 57.5 307.5C57.1 308.3 57 314.5 57 317.5C56.5 318.667 55.6 321 56 321C56.4 321 57.8333 320.667 58.5 320.5C58.5 321 58.4 322 58 322C57.6 322 56.8333 323 56.5 323.5C55.6667 324 54.3 325 55.5 325C57 325 57 325.5 59 325C61 324.5 62.5 324.5 63 324C63.5 323.5 67 321 67.5 320.5C68 320 70 315.5 70.5 315C71 314.5 77 311 77.5 311C78 311 82.5 310.5 83 310C83.5 309.5 86 307.5 86.5 306.5C87 305.5 88 303.5 88.5 303.5C88.9 303.5 89.3333 303.5 89.5 303.5L90.5 304H92.5C93.1667 303.667 94.5 302.9 94.5 302.5C94.5 302 94.5 301 94.5 300.5C94.5 300 93 299.5 93 299C93 298.6 93.3333 298.5 93.5 298.5L95 299L96 298.5L96.5 298C96.6667 297.667 96.9 296.9 96.5 296.5C96 296 96 296 95.5 296C95 296 94.5 296 94.5 295.5C94.5 295.1 95.1667 294.667 95.5 294.5C95.8333 294.5 96.5 294.4 96.5 294C96.5 293.5 96.5 293 97 293C97.5 293 97.5 293.5 98 293C98.4 292.6 98.5 292.167 98.5 292V291.5C98.1667 291.333 97.5 290.9 97.5 290.5C97.5 290.1 98.1667 290 98.5 290H99L98.5 288.5V286.5C98.3333 285.833 98.1 284.6 98.5 285C99 285.5 100 285.5 100.5 286C100.9 286.4 101.333 286.5 101.5 286.5H102.5L103 284.5H104L105.5 285L105 287C105 287.5 105.1 288.3 105.5 287.5C105.9 286.7 106.333 286.167 106.5 286C106.833 285.833 107.6 285.6 108 286C108.5 286.5 108 286.5 108.5 286.5C108.9 286.5 109.333 286.5 109.5 286.5L110 285.5C110.333 285.333 111.1 285 111.5 285C112 285 113 285 113.5 284.5C114 284 116.5 281.5 117 281.5C117.5 281.5 118.5 281.5 119.5 281C120.5 280.5 121 279.5 121.5 279.5C122 279.5 123 279.5 123.5 279.5C123.9 279.5 124.333 279.167 124.5 279C124.667 278.667 125 277.9 125 277.5C125 277 126 275.5 126.5 275.5C126.9 275.5 129.333 274.833 130.5 274.5C130.667 274.167 131.1 273.5 131.5 273.5C131.9 273.5 133 273.167 133.5 273C134 272.667 135 271.9 135 271.5C135 271 136 269.5 136.5 269.5C136.9 269.5 138.667 269.5 139.5 269.5C140 269.167 141 268.3 141 267.5C141 266.7 142 266.5 142.5 266.5H145C145.5 266.5 146.5 266.1 146.5 264.5C146.5 262.9 146.833 261.833 147 261.5C147.167 261.333 147.6 261 148 261C148.4 261 149.167 260.667 149.5 260.5L150.5 258.5C150.5 258 150.4 256.9 150 256.5C149.5 256 148 255 148.5 254.5C148.9 254.1 149.333 254 149.5 254L150.5 254.5L151 255C151.167 254.667 151.5 253.9 151.5 253.5C151.5 253 152 252 151.5 251.5C151 251 150.5 250 151 249.5C151.4 249.1 151.833 248.667 152 248.5C152.167 248.167 152.4 247.5 152 247.5C151.5 247.5 150.5 247 150.5 246.5C150.5 246.1 150.5 245.667 150.5 245.5V244.5C150.5 244.167 150.6 243.6 151 244C151.4 244.4 151.833 244.5 152 244.5C152.167 244.5 152.5 244.3 152.5 243.5C152.5 242.7 151.167 240.167 150.5 239C150.667 238.167 151.1 236.5 151.5 236.5C152 236.5 155.5 234 155.5 232.5C155.5 231 152.5 228 152.5 227.5C152.5 227.1 152.5 225.333 152.5 224.5C152.333 224 151.9 222.9 151.5 222.5C151 222 150 220 151 220.5C151.8 220.9 152.333 221 152.5 221C152.667 221 153 220.9 153 220.5C153 220 151 217 151 216.5C151 216.1 151 215 151 214.5C151 214.167 151.1 213.5 151.5 213.5C151.9 213.5 152.333 213.5 152.5 213.5C152.5 213.333 152.5 212.9 152.5 212.5C152.5 212 151.5 209.5 151.5 208.5C151.5 207.5 151 207.5 151 206.5C151 205.7 150.333 204.167 150 203.5C149.5 202.167 148.5 199.3 148.5 198.5C148.5 197.5 147.5 194.5 147 193.5C146.5 192.5 144 186.5 144 185C144 183.5 144.5 180 143.5 179.5C142.5 179 139.5 177 139 176.5C138.5 176 136 173.5 135.5 172.5C135 171.5 133.5 168.5 132.5 168C131.5 167.5 129.5 164.5 130 164C130.5 163.5 131.5 163 131 162.5C130.5 162 130.5 161 130 161.5C129.6 161.9 129.5 162.667 129.5 163C129.333 163.167 128.9 163.4 128.5 163C128.1 162.6 128.333 161.833 128.5 161.5C128.833 161.167 129.4 160.5 129 160.5C128.6 160.5 127.5 160.5 127 160.5C126.667 160.5 126 160.3 126 159.5C126 158.5 126.5 158 126 158C125.5 158 124.5 158 124 158C123.5 158 122 159 121.5 158.5C121 158 120 158 120.5 157.5C120.9 157.1 121.667 157.333 122 157.5L120.5 155.5L114.5 151C113.667 150.5 111.8 149.2 111 148C110 146.5 107 145 106.5 143.5C106 142 104.5 140 102.5 138.5C100.5 137 98.5 135.5 97.5 134C96.5 132.5 94.5 131 93.5 128.5C92.5 126 91 124 92 124C92.8 124 93 123.333 93 123C93 122.667 92.9 121.9 92.5 121.5C92 121 88.5 117 87.5 116.5C86.5 116 85 115.5 84 114.5C83 113.5 80.5 112.5 80 110.5C79.6 108.9 78.5 106.5 78 105.5C77.5 104.5 76.3 102.3 75.5 101.5C74.5 100.5 74 99.5 74 99C74 98.5 76.5 96 77 94.5C77.5 93 77.5 90.5 78 88.5C78.4 86.9 78.1667 86.1667 78 86C78 85.6667 78.1 84.8 78.5 84C79 83 80.5 81.5 80.5 81C80.5 80.5 81 77.5 81.5 77.5C82 77.5 82.5 77 83 77C83.5 77 84 77.5 84.5 77.5C84.9 77.5 89 73.8333 91 72C91.5 71.8333 92.7 71.5 93.5 71.5C94.5 71.5 95 71.5 95 69.5C95 67.5 95 65.5 94.5 64.5C94 63.5 96 61.5 97 61C98 60.5 99 60 99 59C99 58 99 56.5 99.5 56.5C99.9 56.5 100.667 57.1667 101 57.5C101.167 57.5 101.5 57.3 101.5 56.5C101.5 55.5 102 54.5 102.5 54.5C103 54.5 104.5 54.5 105 54.5C105.5 54.5 106.5 55 107 55C107.5 55 108.5 54.5 109 54.5C109.5 54.5 111.5 54.5 111.5 54C111.5 53.5 112.5 52 113 52C113.5 52 114.5 51.5 115 50.5C115.5 49.5 116 49.5 115.5 49C115 48.5 114 47.5 114.5 47C115 46.5 116 46.5 116.5 46.5C117 46.5 117.5 46 117.5 45.5C117.5 45 118.5 44.5 119 44.5C119.5 44.5 120 44 120.5 43.5C121 43 121 42 121.5 42C121.9 42 122.333 42.3333 122.5 42.5C122.667 42.8333 123.1 43.5 123.5 43.5C124 43.5 125 43.5 125 43C125 42.5 125 42 124 41C123 40 122.5 39.5 121.5 39C120.7 38.6 119.833 38.8333 119.5 39C119 39.1667 117.9 39.5 117.5 39.5C117 39.5 114.5 39.5 113.5 39C112.5 38.5 111.5 38 111 37.5C110.6 37.1 109.167 37 108.5 37C107.667 36.8333 105.9 36.3 105.5 35.5C105 34.5 104.5 33.5 104.5 33C104.5 32.5 104 32 103 32C102.2 32 101.333 31.3333 101 31C101 31 100.8 31 100 31C99 31 98 31 97.5 31C97 31 97.5 31 97.5 30C97.5 29 97.5 27.5 97 26.5C96.6 25.7 95.1667 24.8333 94.5 24.5C94.1667 23.6667 93.6 21.7 94 20.5C94.5 19 95 18.5 95.5 18.5C96 18.5 97.5 18 97.5 17.5C97.5 17.1 97.8333 16 98 15.5C98.5 15 99.5 13.9 99.5 13.5C99.5 13 99.5 12 99 11.5C98.5 11 96.5 10 95.5 10C94.7 10 93.1667 10 92.5 10C91.8333 10.3333 90.4 11 90 11C89.5 11 88.5 11 88 10.5C87.5 10 87.5 8.5 86.5 8.5C85.7 8.5 84.1667 8.5 83.5 8.5C83.1667 8.5 82.4 8.6 82 9C81.5 9.5 80 9.5 79 9C78 8.5 77 7 76.5 7C76 7 73 6.5 73 5.5C73 4.5 72.5 3.5 72 3C71.5 2.5 69 0 68.5 0C68.1 0 67.6667 0 67.5 0Z"
        stroke="black" />
</svg>
